<svg class="sprk-c-Masthead__logo" viewBox="0 0 654 114">
  <title>Rocket Mortgage by Quicken Loans</title>
  <g>
    <path d="M473.3,101.1l1.9-1.9a7.9,7.9,0,0,0,6,2.4c2.5,0,4.3-1.2,4.3-3.3s-1.8-2.9-5-3.9-6.2-2.2-6.2-5.8,2.8-5.6,6.8-5.6a8.7,8.7,0,0,1,6.7,2.6l-1.7,1.9a6.8,6.8,0,0,0-5-2.1c-2.5,0-4,1.2-4,3.1s2,2.7,4.8,3.6,6.4,2.2,6.4,6.1-2.9,5.9-7.1,5.9A10.4,10.4,0,0,1,473.3,101.1Z"/>
    <path d="M469.5,91.5v12.2h-2.9V92c0-4-2-6.4-5.6-6.4a6.1,6.1,0,0,0-6.3,6.5v11.6h-2.8V83.4h2.8v3.2c1.3-2.3,3.7-3.6,7-3.6C466.5,83,469.5,85.9,469.5,91.5Z"/>
    <path d="M446,83.4v20.4h-2.8v-4a8.5,8.5,0,0,1-7.8,4.3c-5.8,0-9.9-4.4-9.9-10.5S429.7,83,435.4,83a8.4,8.4,0,0,1,7.8,4.3V83.4Zm-2.6,10.1a7.5,7.5,0,0,0-7.6-7.8c-4.3,0-7.3,3.1-7.3,7.9s2.9,7.8,7.2,7.8A7.6,7.6,0,0,0,443.4,93.5Z"/>
    <path d="M400.6,93.5a10.5,10.5,0,1,1,10.5,10.6A10.1,10.1,0,0,1,400.6,93.5Zm18.1,0c0-4.7-3.1-7.8-7.6-7.8a7.4,7.4,0,0,0-7.6,7.8c0,4.7,3.3,7.9,7.6,7.9S418.7,98.2,418.7,93.5Z"/>
    <path d="M398.2,100.9v2.8H382.4V75h3v25.9Z"/>
    <path d="M365,91.5v12.2h-2.9V92c0-4-2-6.4-5.6-6.4a6.1,6.1,0,0,0-6.3,6.5v11.6h-2.8V83.4h2.8v3.2c1.3-2.3,3.7-3.6,7-3.6C362,83,365,85.9,365,91.5Z"/>
    <path d="M342.3,94.4H325.5c.3,4.3,3.1,7.1,7.2,7.1a9,9,0,0,0,6.5-2.8l1.9,1.6a10.3,10.3,0,0,1-8.4,3.8c-6.3,0-10.1-4.7-10.1-10.6s4.3-10.5,10-10.5,9.7,4.3,9.7,11.1v.3Zm-3.1-2.3c-.4-4.2-2.9-6.6-6.5-6.6a7,7,0,0,0-7.2,6.6Z"/>
    <path d="M304.3,73.3h2.8V92.6l9.5-9.2h3.8L310.1,93l10.7,10.7h-3.9l-9.8-10.1v10.1h-2.8Z"/>
    <path d="M282.3,93.6A10.2,10.2,0,0,1,292.9,83a11.4,11.4,0,0,1,6.5,2.1l-1.3,2.4a8.3,8.3,0,0,0-5.1-1.9,7.9,7.9,0,0,0-.2,15.8,8.4,8.4,0,0,0,5.6-2l1.2,2.2a10.4,10.4,0,0,1-7,2.5A10.1,10.1,0,0,1,282.3,93.6Z"/>
    <path d="M273.5,76.8a2.1,2.1,0,1,1,4.2,0,2.1,2.1,0,0,1-4.2,0Zm.6,6.6H277v20.3h-2.9Z"/>
    <path d="M267.8,83.4v20.3H265v-3.4a7.8,7.8,0,0,1-7,3.8c-4.8,0-7.8-2.8-7.8-8.4V83.4H253V95.1c0,4.2,2,6.4,5.5,6.4A6.2,6.2,0,0,0,265,95V83.4Z"/>
    <path d="M241.7,104.2l-2.7-2.7a14.8,14.8,0,1,1,6.3-12.2A15,15,0,0,1,241,99.8l4.4,4.4Zm-4.8-4.8-5-5h3.6l3.3,3.3a11.8,11.8,0,0,0,3.3-8.4,11.4,11.4,0,1,0-11.4,11.9A11.8,11.8,0,0,0,236.9,99.4Z"/>
    <path d="M203.6,83.4l-8.5,21.1c-2.2,5.7-4.7,7.9-8.4,7.9h-.3l-.5-2.7h.3c2.5,0,4.6-1.6,6.4-6.3l.3-.7-8.8-19.3h3.1l7.1,15.9,6.3-15.9Z"/>
    <path d="M182.5,93.5c0,6.1-4,10.6-9.9,10.6a8.8,8.8,0,0,1-7.7-4.3v3.9h-2.8V73.3h2.8V87.2a9.2,9.2,0,0,1,7.9-4.2C178.5,83,182.5,87.4,182.5,93.5Zm-2.9,0c0-4.4-2.7-7.9-7.2-7.9a7.9,7.9,0,0,0-.1,15.8C176.6,101.4,179.6,98.1,179.6,93.5Z"/>
  </g>
  <g>
    <path d="M652.8,38.1H623.3c.7,6.9,5.3,11.2,11.8,11.2a14.6,14.6,0,0,0,10.8-4.6l4.8,3.6c-3,3.5-7.7,7-15.7,7-11.4,0-18.7-8.3-18.7-19.1s7.9-19.3,18.5-19.3,18,7.9,18,20.2v1ZM645.5,33c-.8-6.5-4.7-10.4-10.6-10.4S624.3,26.4,623.4,33Z"/>
    <path d="M609.9,17.6V51.9c0,12.2-7.5,18.8-19.2,18.8-8.4,0-13.7-3.1-17.4-8l5.7-3.6c2.1,2.6,5.7,5.3,12,5.3s11.9-4.3,11.9-12V47.8c-2.9,4.7-7.6,6.9-13.4,6.9-10.4,0-17.9-7.8-17.9-18.8s7.3-19,17.9-19a15.3,15.3,0,0,1,13.4,6.9V17.6Zm-6.8,18.1C603.1,29,598,23,590.9,23s-12.2,5.6-12.2,12.8,5.1,12.6,12.3,12.6S603.1,42.9,603.1,35.7Z"/>
    <path d="M565.3,17.6V54.7h-7V48.2c-2.9,5.1-7.8,7.2-13.4,7.2-10.5,0-17.9-8-17.9-19.2s7.5-19.3,17.9-19.3c5.7,0,10.8,2.3,13.4,7V17.6Zm-6.6,18.5c0-7.3-5.4-12.8-12.5-12.8s-12,5.2-12,12.9,4.8,12.7,11.9,12.7A12.4,12.4,0,0,0,558.7,36.1Z"/>
    <path d="M520.8,17.6V51.9c0,12.2-7.5,18.8-19.2,18.8-8.4,0-13.7-3.1-17.4-8l5.7-3.6c2,2.6,5.7,5.3,12,5.3s11.9-4.3,11.9-12V47.8c-2.9,4.7-7.6,6.9-13.4,6.9-10.5,0-18-7.8-18-18.8s7.3-19,18-19a15.4,15.4,0,0,1,13.4,6.9V17.6ZM514,35.7C514,29,508.9,23,501.8,23s-12.2,5.6-12.2,12.8,5.1,12.6,12.3,12.6S514,42.9,514,35.7Z"/>
    <path d="M460.9,40.5V23.9h-6.4V17.6h6.4V7l7-2.3V17.6h10.4v6.3H467.9V39.6c0,6.2,3.3,8.8,9.3,8.8h.6l-1.1,6.9h-.3C466,55.3,460.9,50.7,460.9,40.5Z"/>
    <path d="M450,17.6V24h-2.8c-7.1,0-10.3,5.2-10.3,12.7v18H430V17.6h6.9v6.6c2.4-4.8,6.2-6.6,10.3-6.6Z"/>
    <path d="M384.5,36.1c0-11.1,8.2-19.2,19.5-19.2s19.5,8.1,19.5,19.2-8,19.3-19.5,19.3S384.5,47.4,384.5,36.1Zm31.8,0c0-7.5-5-12.7-12.3-12.7s-12.3,5.2-12.3,12.7,5.2,12.8,12.3,12.8S416.3,43.6,416.3,36.1Z"/>
    <path d="M327.4,2.5h8.4l16.8,24.3L369.5,2.5h8.6V54.7h-7.4V13.3L353.8,37.5h-2.4L334.8,13.3V54.7h-7.4V2.5Z"/>
  </g>
  <g>
    <polygon points="262 2.5 262 13.2 277.9 13.2 277.9 54.7 290.7 54.7 290.7 13.2 306.5 13.2 306.5 2.5 262 2.5"/>
    <polygon points="231.9 43.9 256.8 43.9 256.8 54.7 219.1 54.7 219.1 2.5 255.6 2.5 255.6 13.2 231.9 13.2 231.9 22.8 253.3 22.8 253.3 33.2 231.9 33.2 231.9 43.9"/>
    <path d="M192,27.3l21.4,27.4H198.1L178.5,29.1V54.7H165.7V2.5h12.8V25.8L197.4,2.5h15.2Z"/>
    <path d="M152.8,40.2l6.8,9.2c-4.9,4.3-11,6.1-18.4,6.1-14.7,0-27.4-10.7-27.4-27S126.4,1.6,141.2,1.6c7.1,0,13.5,1.8,18.3,5.6l-7,9.6a16.5,16.5,0,0,0-11.2-4c-8.1,0-14.6,6.5-14.6,15.9s6.5,15.6,14.8,15.6A17.4,17.4,0,0,0,152.8,40.2Z"/>
    <path d="M78.4,12.8c9.4,0,16.8,7.2,16.8,17.1,0,7.9-3.9,12.5-9.1,16.1l7.2,9.5c8.9-6,14.5-14.5,14.5-25.6,0-16.4-13-28.3-29.4-28.3S49.1,13.5,49.1,29.9c0,11.1,5.5,19.6,14.5,25.6L70.7,46c-5.2-3.6-9-8.2-9-16.1C61.7,20,69,12.8,78.4,12.8Z" fill="#d71227"/>
    <path d="M31.7,34.6,47.4,54.7H32.7L14,29.5V54.7H1.2V2.5H24.7c11.2,0,19,6.9,19,16.9A15.4,15.4,0,0,1,31.7,34.6ZM31,19.5c0-3.8-3.1-6.5-7.5-6.5H14.1V26.2h9.4C28,26.2,31,23.5,31,19.5Z"/>
  </g>
</svg>
